<?xml version="1.0" encoding="UTF-8" standalone="no"?>
<!-- Created with Inkscape (http://www.inkscape.org/) -->

<svg
   version="1.1"
   id="svg16949"
   width="1024"
   height="1024"
   viewBox="0 0 1024 1024"
   sodipodi:docname="Breaking_logo.png"
   inkscape:export-filename="Breaking_logo4.png"
   inkscape:export-xdpi="96"
   inkscape:export-ydpi="96"
   inkscape:version="1.2.2 (732a01da63, 2022-12-09)"
   inkscape:dataloss="true"
   xmlns:inkscape="http://www.inkscape.org/namespaces/inkscape"
   xmlns:sodipodi="http://sodipodi.sourceforge.net/DTD/sodipodi-0.dtd"
   xmlns:xlink="http://www.w3.org/1999/xlink"
   xmlns="http://www.w3.org/2000/svg"
   xmlns:svg="http://www.w3.org/2000/svg">
  <defs
     id="defs16953">
    <linearGradient
       inkscape:collect="always"
       id="linearGradient21094">
      <stop
         style="stop-color:#e5a008;stop-opacity:1;"
         offset="0.19744058"
         id="stop21090" />
      <stop
         style="stop-color:#e7af0e;stop-opacity:0;"
         offset="1"
         id="stop21092" />
    </linearGradient>
    <linearGradient
       inkscape:collect="always"
       id="linearGradient19573">
      <stop
         style="stop-color:#cfaa17;stop-opacity:0.13231552;"
         offset="0"
         id="stop19569" />
      <stop
         style="stop-color:#fab106;stop-opacity:1;"
         offset="0.83546621"
         id="stop19571" />
    </linearGradient>
    <linearGradient
       inkscape:collect="always"
       id="linearGradient19565">
      <stop
         style="stop-color:#001426;stop-opacity:1;"
         offset="0.59232175"
         id="stop19561" />
      <stop
         style="stop-color:#001426;stop-opacity:0;"
         offset="1"
         id="stop19563" />
    </linearGradient>
    <linearGradient
       inkscape:collect="always"
       id="linearGradient19555">
      <stop
         style="stop-color:#06154d;stop-opacity:1;"
         offset="0"
         id="stop19551" />
      <stop
         style="stop-color:#ff9e2a;stop-opacity:1;"
         offset="0.48171848"
         id="stop19559" />
      <stop
         style="stop-color:#6b0000;stop-opacity:0.72010177;"
         offset="1"
         id="stop19553" />
    </linearGradient>
    <linearGradient
       inkscape:collect="always"
       xlink:href="#linearGradient19555"
       id="linearGradient19557"
       x1="1335.2927"
       y1="755.67749"
       x2="1581.7544"
       y2="516.36377"
       gradientUnits="userSpaceOnUse"
       gradientTransform="matrix(0.96603783,0,0,0.96603783,-896.98199,-172.13011)" />
    <linearGradient
       inkscape:collect="always"
       xlink:href="#linearGradient19565"
       id="linearGradient19567"
       x1="1199.6526"
       y1="898.36707"
       x2="1688.767"
       y2="402.86502"
       gradientUnits="userSpaceOnUse"
       gradientTransform="matrix(0.96603783,0,0,0.96603783,-896.98199,-172.13011)" />
    <linearGradient
       inkscape:collect="always"
       xlink:href="#linearGradient19573"
       id="linearGradient19575"
       x1="1608.1353"
       y1="495.56845"
       x2="1768.5184"
       y2="343.43286"
       gradientUnits="userSpaceOnUse"
       gradientTransform="matrix(1.1497704,0.28944062,-0.29771088,1.182623,-1116.0336,-739.49922)" />
    <radialGradient
       inkscape:collect="always"
       xlink:href="#linearGradient21094"
       id="radialGradient21096"
       cx="780.81451"
       cy="242.89418"
       fx="780.81451"
       fy="242.89418"
       r="24.464163"
       gradientTransform="matrix(1.8011606,0,0,1.7798871,-660.69167,-218.47924)"
       gradientUnits="userSpaceOnUse" />
  </defs>
  <sodipodi:namedview
     id="namedview16951"
     pagecolor="#ffffff"
     bordercolor="#000000"
     borderopacity="0.25"
     inkscape:showpageshadow="2"
     inkscape:pageopacity="1"
     inkscape:pagecheckerboard="0"
     inkscape:deskcolor="#d1d1d1"
     showgrid="false"
     inkscape:zoom="0.70710678"
     inkscape:cx="648.41692"
     inkscape:cy="521.1377"
     inkscape:window-width="1920"
     inkscape:window-height="1111"
     inkscape:window-x="-9"
     inkscape:window-y="-9"
     inkscape:window-maximized="1"
     inkscape:current-layer="g16955" />
  <g
     inkscape:groupmode="layer"
     inkscape:label="Image"
     id="g16955">
    <path
       style="fill:url(#linearGradient19575);fill-opacity:1;stroke-width:1.20246"
       d="m 583.87921,312.86989 c 0.33419,-1.32756 19.53854,-22.56431 28.58682,-31.61227 28.26845,-28.26705 74.69628,-56.2523 113.68954,-68.5286 6.75557,-2.12686 9.48781,-1.14907 12.4224,-4.42111 10.72345,10.79474 21.61893,2.6517 -25.47004,20.41466 -37.49186,13.61635 -92.73231,49.00736 -120.81078,77.4001 -7.04221,7.12108 -8.88358,8.59687 -8.41794,6.74722 z"
       id="path19526"
       sodipodi:nodetypes="sssccss" />
    <path
       style="fill:#001427;fill-opacity:1;stroke-width:0.966038"
       d="m 502.66076,445.5767 c -6.5111,-2.32732 -11.45518,-6.17542 -14.88723,-11.58721 -4.03282,-6.35914 -5.05315,-10.2935 -4.53641,-17.49217 0.77273,-10.76363 6.47487,-19.29119 16.02338,-23.96284 4.54559,-2.22396 6.72285,-2.67664 12.73392,-2.64765 8.48877,0.041 14.05942,2.15176 20.11387,7.62154 6.13367,5.54139 8.87287,11.96773 8.87287,20.81619 0,5.94632 -0.47153,8.29512 -2.47035,12.30634 -6.48134,13.00629 -22.54279,19.70228 -35.85005,14.9458 z"
       id="path19524" />
    <path
       style="fill:#001427;fill-opacity:1;stroke-width:0.966038"
       d="m 481.73029,580.3774 c -1.84619,-49.08561 -9.23938,-73.93571 -30.10599,-101.19246 -20.0476,-26.18702 -28.99408,-40.94978 -38.93152,-64.24151 -6.27113,-14.69852 -12.43203,-33.00539 -11.44098,-33.99644 0.75583,-0.75586 0.12752,-1.64367 6.62538,9.36247 23.64967,40.05822 65.4424,74.41898 99.91063,82.14345 5.62553,1.26072 15.4084,-1.30492 27.88014,-7.31183 30.40247,-14.64312 60.76542,-43.31614 80.52089,-76.03917 2.80673,-4.64905 5.50864,-8.45283 6.00432,-8.45283 1.25546,0 1.36588,-0.4571 -3.3595,13.90281 -8.02526,24.38826 -22.74661,53.17817 -36.42397,71.23294 -14.21737,18.76777 -17.05656,22.76041 -20.95365,29.46638 -12.91283,22.2204 -17.81277,46.07993 -19.77315,96.28251 l -0.21871,5.60161 -8.21132,-5.63905 c -4.51623,-3.10148 -11.22652,-7.86734 -14.91167,-10.59081 l -6.70034,-4.95178 -3.92607,3.18194 c -4.17609,3.38459 -24.47361,17.90593 -25.0284,17.90593 -0.18113,0 -0.61131,-7.49887 -0.95609,-16.66416 z"
       id="path19522" />
    <path
       style="fill:url(#linearGradient19557);fill-opacity:1;stroke-width:0.966038"
       d="m 502.04838,652.97946 c -10.88782,-2.56227 -24.68574,-12.5417 -34.58009,-25.01035 -11.44968,-14.42851 -23.41647,-37.54232 -29.94727,-57.84303 l -2.28777,-7.1117 -4.84681,0.58697 c -23.93668,2.8988 -37.53375,2.93208 -52.18266,0.12772 -23.86277,-4.56824 -38.04875,-17.10081 -41.14925,-36.35307 -2.95433,-18.34464 10.40269,-50.60527 31.73541,-76.64924 l 4.71504,-5.75629 -8.82978,-11.65277 c -14.02484,-18.5087 -20.5995,-30.9678 -24.47979,-46.38937 -2.9495,-11.72205 -3.33437,-16.01894 -2.13127,-23.79379 3.49667,-22.5978 18.66714,-35.09203 46.84124,-38.57801 10.98801,-1.35953 30.73208,-0.71236 44.94192,1.4731 5.02581,0.77298 9.30825,1.235 9.51653,1.02673 0.20828,-0.20828 2.4463,-5.51512 4.97345,-11.79299 12.10185,-30.0631 25.59576,-49.80859 41.82993,-61.20938 9.42225,-6.61699 16.93377,-8.92726 27.64674,-8.50306 7.69333,0.30464 9.25213,0.71745 16.75699,4.43791 19.32617,9.58068 37.46044,33.95321 50.10568,67.34204 3.22299,8.51018 3.94829,9.69248 5.89911,9.61667 1.22339,-0.0475 8.09298,-0.86423 15.26581,-1.81486 16.42776,-2.17723 36.17551,-1.62933 48.05768,1.33333 25.71138,6.41082 38.13106,22.62261 36.69862,47.90382 -0.97136,17.14343 -13.389,42.73098 -31.40251,64.7071 l -4.73678,5.77881 5.9963,7.26271 c 16.03883,19.4262 27.46484,42.51629 30.39995,61.43332 1.36443,8.79421 -0.0222,18.16267 -3.85555,26.05676 -10.6297,21.88717 -41.66116,30.66632 -85.4901,24.1861 l -8.38453,-1.23967 -0.97715,2.51122 c -0.5375,1.38117 -2.27366,6.20631 -3.85816,10.72253 -3.36056,9.5781 -11.79977,27.58213 -16.91503,36.08625 -12.63858,21.01152 -29.30689,36.17153 -44.68167,40.63839 -5.66562,1.64604 -14.75806,1.85134 -20.64423,0.4661 z m 25.06096,-12.85882 c 14.0685,-6.6811 28.34722,-23.8083 39.6202,-47.52421 5.24559,-11.03555 11.92709,-28.26478 11.92709,-30.75567 0,-0.7357 -1.56247,-1.57292 -3.62264,-1.94122 -1.99245,-0.35618 -8.51321,-2.00145 -14.49057,-3.65616 -10.84696,-3.00276 -10.86792,-3.01429 -10.85478,-5.98066 0.01,-1.63466 0.2644,-3.9083 0.57141,-5.05253 l 0.55808,-2.08041 5.46642,1.82338 c 8.10622,2.70394 25.22943,6.56607 25.70433,5.79761 1.58556,-2.56544 7.40604,-33.23681 8.79249,-46.33191 0.53625,-5.06603 0.41811,-6.0202 -0.66453,-5.36352 -0.72424,0.43933 -4.24854,2.68832 -7.83167,4.99776 -12.1032,7.80078 -25.84741,15.61816 -25.84741,14.70143 0,-0.5011 1.33806,-3.90359 2.97347,-7.56111 2.09128,-4.67699 3.73934,-6.99826 5.55472,-7.82369 1.41968,-0.64551 8.06409,-4.82441 14.7653,-9.28647 l 12.18406,-8.11281 0.61594,-4.49362 c 0.33879,-2.47149 0.61595,-8.30173 0.61595,-12.95606 0,-7.92145 0.20065,-8.76843 3.13962,-13.24912 1.7268,-2.63267 3.62989,-5.6107 4.22903,-6.61782 0.90131,-1.5149 1.20812,-0.57986 1.77654,5.41413 0.37791,3.9849 0.53973,10.83272 0.35966,15.21736 -0.18017,4.38465 -0.24142,7.97106 -0.13612,7.96982 0.83746,-0.01 14.45541,-12.14653 23.76579,-21.18054 l 11.39876,-11.06035 -11.69282,-11.72092 -11.69273,-11.7209 1.77896,-4.52897 1.77905,-4.52897 7.69237,6.77849 c 4.23086,3.72817 10.0834,9.37086 13.00567,12.5393 l 5.31321,5.76079 5.3132,-6.78045 c 19.03018,-24.28531 29.08876,-47.64899 27.62733,-64.17109 -1.80697,-20.42764 -16.09235,-30.31089 -47.4311,-32.81503 -7.97735,-0.63743 -26.85769,0.6554 -36.26844,2.48348 l -5.35523,1.04027 4.52985,18.02677 c 2.49131,9.91473 5.60137,24.32241 6.91103,32.01707 l 2.38128,13.99029 -2.40872,3.6399 c -1.32482,2.00194 -2.53459,3.6399 -2.68819,3.6399 -0.1537,0 -3.8997,-2.72795 -8.32454,-6.06209 -10.55416,-7.95281 -28.49696,-19.26842 -42.33931,-26.70134 -12.77856,-6.86163 -31.35286,-15.53846 -33.263,-15.53846 -2.21522,0 -21.68842,9.02608 -34.20383,15.8539 -13.63659,7.43952 -33.1209,19.69085 -43.36804,27.26897 -3.85169,2.84846 -7.33329,5.17364 -7.73691,5.16706 -0.4037,-0.007 -1.64931,-1.42636 -2.76818,-3.15508 l -2.03428,-3.14313 2.86952,-16.40718 c 1.57831,-9.02395 4.70074,-23.66045 6.93886,-32.52555 4.68789,-18.56923 5.61248,-16.39334 -7.67189,-18.05379 -20.47044,-2.55863 -36.2581,-2.10099 -50.16499,1.45414 -11.62153,2.97089 -19.6724,8.9164 -23.84056,17.60599 -2.94999,6.14989 -3.58796,18.71206 -1.43804,28.31664 3.05934,13.66715 13.29509,32.59821 26.4192,48.86233 l 4.87124,6.03676 3.12929,-3.62166 c 3.95438,-4.57655 21.14773,-20.52732 22.12642,-20.52732 0.40294,0 1.45437,1.83731 2.33646,4.08291 l 1.60382,4.08291 -11.25038,11.27973 -11.25029,11.27974 1.97304,2.77087 c 3.34181,4.69312 30.92519,30.26234 32.64618,30.26234 0.27107,0 0.20239,-3.84822 -0.15263,-8.55158 -0.35502,-4.70336 -0.33106,-11.48851 0.0531,-15.07811 l 0.69893,-6.52652 4.74209,7.4015 4.74208,7.40151 0.01,11.78226 0.01,11.78226 7.47762,5.14459 c 4.11271,2.82954 10.88406,7.32822 15.04749,9.99707 7.00754,4.49196 7.78066,5.32225 10.40693,11.17557 1.56035,3.4777 2.6682,6.49181 2.46205,6.69802 -0.48051,0.48047 -17.32145,-9.19675 -26.61048,-15.29097 -3.92569,-2.57552 -7.2534,-4.68277 -7.39483,-4.68277 -1.57928,0 7.14462,50.38422 9.06173,52.33485 0.62599,0.63697 23.24354,-4.76804 28.31737,-6.76712 2.24671,-0.88522 2.62907,-0.75017 3.12638,1.10431 0.31165,1.16207 0.57257,3.46237 0.57982,5.11177 0.0126,2.89379 -0.23224,3.07038 -6.99054,5.03871 -3.85208,1.1219 -10.04679,2.74602 -13.76604,3.60916 -3.71924,0.86315 -7.26538,1.71832 -7.88036,1.9004 -0.74365,0.22021 0.0956,3.66783 2.50765,10.2976 9.76509,26.84392 20.77657,45.93694 33.90184,58.78284 14.81206,14.49692 29.1441,17.74444 45.02547,10.20242 z m -98.32401,-86.16346 c 3.70997,-0.72898 3.6978,0.27821 0.19282,-15.84393 -2.28487,-10.50998 -5.85361,-36.67689 -5.85361,-42.92017 0,-4.15743 -0.10607,-4.28997 -9.41887,-11.77178 -5.18037,-4.16186 -14.85283,-12.8479 -21.49434,-19.30233 l -12.07547,-11.73531 -4.16063,5.12349 c -11.67205,14.37351 -23.3528,35.71776 -27.18401,49.67347 -1.19412,4.34978 -1.98366,10.15213 -1.98366,14.57778 0,6.26696 0.43597,8.22435 2.95414,13.26373 1.62478,3.2515 4.2951,7.04011 5.93398,8.41914 5.7829,4.86602 16.14694,9.03735 27.65786,11.13181 4.91394,0.89411 40.18002,0.41602 45.43179,-0.6159 z m 219.90905,-0.80277 c 13.90302,-3.85625 21.39947,-9.21684 25.75031,-18.41351 2.30652,-4.87544 2.74635,-7.04567 2.74703,-13.55273 0,-17.31152 -10.75741,-41.26357 -28.30076,-63.00357 l -4.86332,-6.02676 -13.12324,12.80113 c -7.21775,7.04062 -16.67391,15.59567 -21.01354,19.01122 l -7.89031,6.2101 -0.61314,6.81931 c -1.48828,16.55287 -6.69155,46.57483 -9.22856,53.24785 -0.75342,1.9816 -0.56359,2.41191 1.25807,2.85195 11.48232,2.77367 45.35432,2.80739 55.27746,0.055 z M 465.14719,372.41778 c 5.31321,-3.05652 15.18679,-8.28831 21.94123,-11.62621 l 12.28085,-6.06891 -7.93368,-2.86433 c -16.55963,-5.97859 -43.70944,-13.52159 -44.78764,-12.44333 -1.20706,1.20701 -8.01715,28.34821 -10.95216,43.64918 -0.61151,3.18792 -1.33246,6.56922 -1.60208,7.51398 -0.32536,1.13999 3.19005,-0.69068 10.45147,-5.44265 6.01783,-3.93823 15.2888,-9.66121 20.60201,-12.71773 z m 122.34222,5.71408 c -2.99317,-14.33354 -8.53765,-36.01576 -9.68424,-37.87094 -1.11665,-1.80678 -27.33356,5.16644 -47.19868,12.554 l -5.06136,1.88226 12.31592,6.07468 c 13.48879,6.65323 34.53952,18.96244 45.14275,26.3968 3.71925,2.60772 6.8807,4.66129 7.02542,4.56347 0.14471,-0.0978 -0.99821,-6.21794 -2.53981,-13.60027 z m -50.68849,-37.89431 c 7.87794,-2.61716 19.10552,-5.94417 24.95005,-7.39335 5.84453,-1.44917 11.13494,-2.7789 11.75639,-2.95493 0.7624,-0.21593 0.097,-3.08976 -2.04539,-8.83296 -11.42562,-30.63068 -28.53859,-54.4537 -44.74774,-62.29346 -5.74271,-2.77751 -7.46284,-3.1493 -14.71421,-3.18042 -7.3045,-0.0313 -8.94531,0.31234 -14.85679,3.11197 -15.89461,7.52754 -31.69058,29.38989 -43.89956,60.75899 l -3.8173,9.80807 9.30942,2.13095 c 10.53889,2.41235 36.87057,10.98358 46.8878,15.26244 l 6.66518,2.84701 5.09421,-2.25292 c 2.8018,-1.23909 11.5399,-4.39422 19.41794,-7.01139 z"
       id="path19520" />
    <path
       style="fill:url(#linearGradient19567);fill-opacity:1;stroke-width:0.966038"
       d="M 256,449.72079 V 200.00001 h 221.70568 c 121.93812,0 221.70568,0.20456 221.70568,0.45457 0,0.25002 -4.00674,3.94709 -8.90387,8.21574 l -8.90378,7.76115 -204.34907,-0.0133 -204.34898,-0.0133 -0.24344,233.79008 -0.24354,233.79007 h 239.09639 239.0963 V 477.33166 270.67835 l 3.36538,-2.07996 c 1.85103,-1.14398 5.54612,-4.52659 8.21132,-7.51691 l 4.84594,-5.43695 V 477.54304 699.44157 H 511.517 256 Z"
       id="path19518" />
    <path
       style="fill:url(#radialGradient21096);fill-opacity:1;fill-rule:evenodd;stroke:none;stroke-width:23.7804"
       id="path20501"
       sodipodi:type="arc"
       sodipodi:cx="745.6806"
       sodipodi:cy="213.84496"
       sodipodi:rx="44.063885"
       sodipodi:ry="43.543446"
       sodipodi:start="2.169418"
       sodipodi:end="2.1664641"
       sodipodi:open="true"
       sodipodi:arc-type="arc"
       d="m 720.85041,249.81677 a 44.063885,43.543446 0 0 1 -11.58989,-60.48216 44.063885,43.543446 0 0 1 61.19648,-11.49767 44.063885,43.543446 0 0 1 11.68028,60.46518 44.063885,43.543446 0 0 1 -61.17923,11.58697" />
    <text
       xml:space="preserve"
       style="font-style:normal;font-variant:normal;font-weight:bold;font-stretch:normal;font-size:183.994px;font-family:'Courier New';-inkscape-font-specification:'Courier New, Bold';font-variant-ligatures:normal;font-variant-caps:normal;font-variant-numeric:normal;font-variant-east-asian:normal;fill:#081c30;fill-opacity:1;fill-rule:evenodd;stroke-width:1.37997"
       x="251.82443"
       y="852.3988"
       id="text3444"
       transform="scale(1.0079509,0.99211181)"><tspan
         sodipodi:role="line"
         id="tspan3442"
         x="251.82443"
         y="852.3988"
         style="font-style:normal;font-variant:normal;font-weight:bold;font-stretch:normal;font-size:183.994px;font-family:'Linux Libertine G';-inkscape-font-specification:'Linux Libertine G, Bold';font-variant-ligatures:normal;font-variant-caps:normal;font-variant-numeric:normal;font-variant-east-asian:normal;fill:#081c30;fill-opacity:1;stroke-width:1.37997">BreaQ</tspan></text>
  </g>
</svg>
